<svg version="1.1" viewBox="0.0 0.0 447.8083989501312 443.62204724409446" fill="none" stroke="none" stroke-linecap="square" stroke-miterlimit="10" xmlns:xlink="http://www.w3.org/1999/xlink" xmlns="http://www.w3.org/2000/svg"><clipPath id="p.0"><path d="m0 0l447.8084 0l0 443.62204l-447.8084 0l0 -443.62204z" clip-rule="nonzero"/></clipPath><g clip-path="url(#p.0)"><path fill="#000000" fill-opacity="0.0" d="m0 0l447.8084 0l0 443.62204l-447.8084 0z" fill-rule="evenodd"/><g filter="url(#shadowFilter-p.1)"><use xlink:href="#p.1" transform="matrix(1.0 0.0 0.0 1.0 0.0 2.0)"/></g><defs><filter id="shadowFilter-p.1" filterUnits="userSpaceOnUse"><feGaussianBlur in="SourceAlpha" stdDeviation="2.0" result="blur"/><feComponentTransfer in="blur" color-interpolation-filters="sRGB"><feFuncR type="linear" slope="0" intercept="0.0"/><feFuncG type="linear" slope="0" intercept="0.0"/><feFuncB type="linear" slope="0" intercept="0.0"/><feFuncA type="linear" slope="0.5" intercept="0"/></feComponentTransfer></filter></defs><g id="p.1"><path fill="#f3f3f3" d="m109.826775 242.93832l-107.40153 -53.70079l0 -128.62991l107.40153 -53.70079l107.40153 53.70079l0 128.62991z" fill-rule="evenodd"/></g><path fill="#f3f3f3" d="m24.96063 51.33202l169.73228 0l0 147.1811l-169.73228 0z" fill-rule="evenodd"/><path fill="#f0131e" d="m90.66264 170.80257l-19.078125 0q-3.515625 0 -5.390625 -1.859375q-1.875 -1.859375 -1.875 -5.40625l0 -82.93749q0 -3.546875 1.875 -5.40625q1.875 -1.859375 5.390625 -1.859375l20.609375 0q2.84375 0 4.78125 1.296875q1.953125 1.28125 3.4375 3.90625l11.515625 20.875q0.5 0.90625 0.234375 1.328125q-0.25 0.40625 -0.25 -0.53125l1.140625 0q0 0.9375 -0.265625 0.53125q-0.25 -0.421875 0.25 -1.328125l11.390625 -20.859375q1.484375 -2.640625 3.421875 -3.921875q1.953125 -1.296875 4.796875 -1.296875l20.734375 0q3.515625 0 5.390625 1.859375q1.875 1.859375 1.875 5.40625l0 82.93749q0 3.546875 -1.875 5.40625q-1.875 1.859375 -5.390625 1.859375l-19.71875 0q-3.515625 0 -5.390625 -1.859375q-1.875 -1.859375 -1.875 -5.40625l0 -34.5625l-2.546875 4.703125q-1.5 2.828125 -3.734375 4.171875q-2.21875 1.34375 -5.390625 1.34375l-5.125 0q-3.15625 0 -5.390625 -1.34375q-2.234375 -1.34375 -3.734375 -4.171875l-2.546875 -4.703125l0 34.5625q0 3.546875 -1.875 5.40625q-1.875 1.859375 -5.390625 1.859375z" fill-rule="nonzero"/><g filter="url(#shadowFilter-p.2)"><use xlink:href="#p.2" transform="matrix(1.0 0.0 0.0 1.0 0.0 2.0)"/></g><defs><filter id="shadowFilter-p.2" filterUnits="userSpaceOnUse"><feGaussianBlur in="SourceAlpha" stdDeviation="2.0" result="blur"/><feComponentTransfer in="blur" color-interpolation-filters="sRGB"><feFuncR type="linear" slope="0" intercept="0.0"/><feFuncG type="linear" slope="0" intercept="0.0"/><feFuncB type="linear" slope="0" intercept="0.0"/><feFuncA type="linear" slope="0.5" intercept="0"/></feComponentTransfer></filter></defs><g id="p.2"><path fill="#f3f3f3" d="m337.98163 242.93832l-107.40152 -53.70079l0 -128.62991l107.40152 -53.70079l107.40152 53.70079l0 128.62991z" fill-rule="evenodd"/></g><path fill="#f3f3f3" d="m253.11548 51.33202l169.7323 0l0 147.1811l-169.7323 0z" fill-rule="evenodd"/><path fill="#f0131e" d="m370.5865 170.80257l-31.234375 0q-16.953125 0 -25.546875 -7.09375q-8.59375 -7.109375 -8.59375 -21.671875l0 -39.812492q0 -14.5625 8.578125 -21.71875q8.59375 -7.171875 25.5625 -7.171875l31.234375 0q3.53125 0 5.390625 1.875q1.875 1.859375 1.875 5.390625l0 15.484375q0 3.53125 -1.875 5.40625q-1.859375 1.859375 -5.390625 1.859375l-25.71875 0q-3.0 0 -4.078125 0.90625q-1.078125 0.890625 -1.078125 2.828125l0 30.468742q0 1.890625 1.046875 2.6875q1.046875 0.796875 4.109375 0.796875l25.71875 0q3.546875 0 5.40625 1.875q1.859375 1.875 1.859375 5.390625l0 15.234375q0 3.53125 -1.875 5.40625q-1.859375 1.859375 -5.390625 1.859375z" fill-rule="nonzero"/><g filter="url(#shadowFilter-p.3)"><use xlink:href="#p.3" transform="matrix(1.0 0.0 0.0 1.0 0.0 2.0)"/></g><defs><filter id="shadowFilter-p.3" filterUnits="userSpaceOnUse"><feGaussianBlur in="SourceAlpha" stdDeviation="2.0" result="blur"/><feComponentTransfer in="blur" color-interpolation-filters="sRGB"><feFuncR type="linear" slope="0" intercept="0.0"/><feFuncG type="linear" slope="0" intercept="0.0"/><feFuncB type="linear" slope="0" intercept="0.0"/><feFuncA type="linear" slope="0.5" intercept="0"/></feComponentTransfer></filter></defs><g id="p.3"><path fill="#f3f3f3" d="m223.99475 436.7152l-107.40153 -53.700775l0 -128.62991l107.40153 -53.70079l107.40152 53.70079l0 128.62991z" fill-rule="evenodd"/></g><path fill="#f3f3f3" d="m139.12862 245.10892l169.73228 0l0 147.18112l-169.73228 0z" fill-rule="evenodd"/><path fill="#f0131e" d="m268.8601 337.73572q0 6.359375 -1.9375 11.734375q-1.9375 5.375 -6.875 9.171875q-4.9374847 3.796875 -13.062485 5.828125q-8.109375 2.03125 -20.328125 2.03125q-12.234375 0 -20.34375 -2.03125q-8.09375 -2.03125 -13.046875 -5.8125q-4.953125 -3.796875 -6.890625 -9.171875q-1.9375 -5.390625 -1.9375 -11.75l0 -63.359375q0 -3.546875 1.875 -5.40625q1.875 -1.859375 5.390625 -1.859375l20.09375 0q3.53125 0 5.390625 1.875q1.875 1.859375 1.875 5.390625l0 58.359375q0 1.375 1.09375 2.375q1.109375 0.984375 6.75 0.984375q5.765625 0 6.859375 -0.984375q1.109375 -1.0 1.109375 -2.375l0 -58.359375q0 -3.53125 1.859375 -5.390625q1.875 -1.875 5.40625 -1.875l19.45311 0q3.53125 0 5.390625 1.875q1.875 1.859375 1.875 5.390625l0 63.359375z" fill-rule="nonzero"/></g></svg>